# xmcd CD database file
# Copyright (C) 1997 Ti Kan
#
# Track frame offsets:
#  150
#  29272
#  56757
#  92312
#  129522
#  178570
#  187397
#  235902
#  251995
#  289540
#  339170
#
# Disc length: 4712 seconds
#
# Revision: 1
# Processed by: cddbd v1.4b41PL1 Copyright (c) Steve Scherf et al.
# Submitted via: CDWizzard Release:4.31
#
DISCID=9912660b
DTITLE=Ten Years After - Recorded Live
DYEAR=1900
DGENRE=
TTITLE0=One Of These days
TTITLE1=You Give Me Loving
TTITLE2=Good Morning Little Schoolgirl
TTITLE3=Hobbit
TTITLE4=Help Me
TTITLE5=I Can't Keep From Cryin' Sometimes
TTITLE6=I Can't Keep From Cryin' Sometimes
TTITLE7=I Can't Keep From Cryin' Sometimes
TTITLE8=Slow Blues In 'C'
TTITLE9=I'm Going Home
TTITLE10=Choo Choo Mama
EXTD=
EXTT0=
EXTT1=
EXTT2=
EXTT3=
EXTT4=
EXTT5=
EXTT6=
EXTT7=
EXTT8=
EXTT9=
EXTT10=
PLAYORDER=
